#!OML:ASF H:\Dans Jumps\Project 1\Capture day 1\Session 1\subject.ASF
:FULLY-SPECIFIED
:DEGREES
471
root 0.417519 17.7368 7.21898 8.6714 -0.205364 -1.47119
lowerback -1.93713 -0.166293 -0.258418
upperback 2.96889 -0.271378 1.6027
thorax 4.15345 -0.170782 1.78301
lowerneck -11.3147 0.337738 -1.80392
upperneck 38.0892 0.492488 1.33758
head 15.1789 0.129705 0.965505
rclavicle 3.13086e-015 9.93923e-016
rhumerus -25.8639 -16.4287 -79.4525
rradius 22.367
rwrist 38.3498
rhand -15.4365 -25.5124
rfingers 7.12502
rthumb 10.7438 -55.2177
lclavicle 3.13086e-015 9.93923e-016
lhumerus -22.2429 4.22896 85.7854
lradius 15.831
lwrist 1.1741
lhand -25.3634 -5.30927
lfingers 7.12502
lthumb 1.1606 24.6673
rfemur -12.8535 -1.62283 19.5597
rtibia 19.0467
rfoot -12.7512 -2.81117
rtoes 13.5026
lfemur -13.3654 6.30596 -17.6948
ltibia 17.5981
lfoot -10.2505 3.27948
ltoes 0.695257
472
root 0.419173 17.7369 7.21745 8.66061 -0.232091 -1.46608
lowerback -1.9434 -0.173221 -0.263872
upperback 2.96774 -0.280317 1.59911
thorax 4.15612 -0.17535 1.78186
lowerneck -11.334 0.347365 -1.79808
upperneck 38.1103 0.510678 1.32301
head 15.1936 0.135866 0.961504
rclavicle 1.2921e-015 -1.59028e-014
rhumerus -25.8975 -16.5091 -79.4216
rradius 22.3288
rwrist 38.392
rhand -15.4097 -25.5099
rfingers 7.12502
rthumb 10.7696 -55.2138
lclavicle 1.2921e-015 -1.59028e-014
lhumerus -22.2724 4.29653 85.8035
lradius 15.7926
lwrist 1.09174
lhand -25.3412 -5.26623
lfingers 7.12502
lthumb 1.18199 24.7102
rfemur -12.8557 -1.61912 19.5471
rtibia 19.0565
rfoot -12.7484 -2.79793
rtoes 13.4552
lfemur -13.3498 6.32425 -17.7075
ltibia 17.5891
lfoot -10.2408 3.27818
ltoes 0.708506
473
root 0.420882 17.7371 7.21602 8.65207 -0.260497 -1.4614
lowerback -1.95351 -0.179185 -0.266836
upperback 2.96829 -0.288041 1.59367
thorax 4.16267 -0.179232 1.77748
lowerneck -11.3543 0.356269 -1.79024
upperneck 38.1296 0.52698 1.30913
head 15.2077 0.141613 0.957123
rclavicle -1.49089e-016 4.96962e-015
rhumerus -25.9285 -16.6026 -79.3905
rradius 22.2893
rwrist 38.4458
rhand -15.3872 -25.4999
rfingers 7.12502
rthumb 10.7913 -55.2027
lclavicle -1.49089e-016 4.96962e-015
lhumerus -22.3054 4.36781 85.8196
lradius 15.7629
lwrist 1.01212
lhand -25.3296 -5.2509
lfingers 7.12502
lthumb 1.19324 24.7255
rfemur -12.8605 -1.61448 19.5346
rtibia 19.0662
rfoot -12.7457 -2.78429
rtoes 13.4049
lfemur -13.3357 6.34411 -17.7204
ltibia 17.5786
lfoot -10.2306 3.27687
ltoes 0.719723
474
root 0.422709 17.7372 7.21467 8.64465 -0.290438 -1.4513
lowerback -1.96656 -0.184419 -0.271887
upperback 2.96944 -0.294584 1.58427
thorax 4.17145 -0.182536 1.77023
lowerneck -11.3684 0.363573 -1.78338
upperneck 38.1442 0.539293 1.29977
head 15.2181 0.146168 0.954097
rclavicle -1.49089e-016 -7.95139e-016
rhumerus -25.9595 -16.7041 -79.3605
rradius 22.2492
rwrist 38.5045
rhand -15.3642 -25.4969
rfingers 7.12502
rthumb 10.8135 -55.1986
lclavicle -1.49089e-016 -7.95139e-016
lhumerus -22.3424 4.43722 85.8332
lradius 15.7394
lwrist 0.938507
lhand -25.308 -5.22644
lfingers 7.12502
lthumb 1.21406 24.7499
rfemur -12.8674 -1.61577 19.516
rtibia 19.0777
rfoot -12.7453 -2.76615
rtoes 13.3336
lfemur -13.3209 6.36209 -17.7403
ltibia 17.5656
lfoot -10.22 3.27852
ltoes 0.726707
475
root 0.424542 17.7373 7.21328 8.63877 -0.323783 -1.43992
lowerback -1.98084 -0.188952 -0.278842
upperback 2.97085 -0.300086 1.57393
thorax 4.18116 -0.185372 1.76313
lowerneck -11.378 0.370552 -1.77783
upperneck 38.1528 0.550411 1.29292
head 15.2245 0.150401 0.95206
rclavicle -2.08724e-015 5.36719e-015
rhumerus -25.9889 -16.8099 -79.3305
rradius 22.208
rwrist 38.5705
rhand -15.3423 -25.4945
rfingers 7.12502
rthumb 10.8346 -55.195
lclavicle -2.08724e-015 5.36719e-015
lhumerus -22.3829 4.50695 85.8463
lradius 15.7233
lwrist 0.872684
lhand -25.2879 -5.23694
lfingers 7.12502
lthumb 1.23353 24.7392
rfemur -12.878 -1.61545 19.4957
rtibia 19.0918
rfoot -12.7455 -2.74633
rtoes 13.2627
lfemur -13.3075 6.3814 -17.7624
ltibia 17.5516
lfoot -10.2084 3.2832
ltoes 0.722696
476
root 0.426443 17.7374 7.21179 8.63581 -0.360512 -1.42379
lowerback -1.99806 -0.192819 -0.290896
upperback 2.97168 -0.304437 1.56194
thorax 4.19193 -0.187771 1.75725
lowerneck -11.3798 0.377444 -1.77248
upperneck 38.1561 0.561133 1.28645
head 15.2263 0.154528 0.950031
rclavicle -1.54058e-015 1.74931e-014
rhumerus -26.0175 -16.9137 -79.301
rradius 22.1653
rwrist 38.636
rhand -15.3272 -25.4896
rfingers 7.12502
rthumb 10.8491 -55.1893
lclavicle -1.54058e-015 1.74931e-014
lhumerus -22.4254 4.56998 85.8612
lradius 15.7163
lwrist 0.819417
lhand -25.2693 -5.24144
lfingers 7.12502
lthumb 1.25146 24.7346
rfemur -12.8942 -1.61993 19.4695
rtibia 19.1082
rfoot -12.748 -2.71767
rtoes 13.1947
lfemur -13.2972 6.39332 -17.7904
ltibia 17.5385
lfoot -10.194 3.29984
ltoes 0.710232
